<svg id="visual" viewBox="0 0 900 600" width="900" height="600" xmlns="http://www.w3.org/2000/svg" xmlns:xlink="http://www.w3.org/1999/xlink" version="1.1"><rect width="900" height="600" fill="#fff"></rect><g><g transform="translate(92 43)"><path d="M0 -14.1L9.9 -9.9L14.1 0L9.9 9.9L0 14.1L-9.9 9.9L-14.1 0L-9.9 -9.9Z" fill="none" stroke="#D62032" stroke-width="2"></path></g><g transform="translate(718 580)"><path d="M0 -11L7.8 -7.8L11 0L7.8 7.8L0 11L-7.8 7.8L-11 0L-7.8 -7.8Z" fill="none" stroke="#D62032" stroke-width="2"></path></g><g transform="translate(43 157)"><path d="M0 -8L5.7 -5.7L8 0L5.7 5.7L0 8L-5.7 5.7L-8 0L-5.7 -5.7Z" fill="none" stroke="#D62032" stroke-width="2"></path></g><g transform="translate(392 74)"><path d="M0 -9L6.4 -6.4L9 0L6.4 6.4L0 9L-6.4 6.4L-9 0L-6.4 -6.4Z" stroke="#D62032" fill="none" stroke-width="2"></path></g><g transform="translate(761 559)"><path d="M0 -11L7.8 -7.8L11 0L7.8 7.8L0 11L-7.8 7.8L-11 0L-7.8 -7.8Z" stroke="#D62032" fill="none" stroke-width="2"></path></g><g transform="translate(847 526)"><path d="M0 -8L5.7 -5.7L8 0L5.7 5.7L0 8L-5.7 5.7L-8 0L-5.7 -5.7Z" stroke="#D62032" fill="none" stroke-width="2"></path></g><g transform="translate(143 450)"><path d="M0 -12L8.5 -8.5L12 0L8.5 8.5L0 12L-8.5 8.5L-12 0L-8.5 -8.5Z" stroke="#D62032" fill="none" stroke-width="2"></path></g><g transform="translate(476 290)"><path d="M0 -5L3.5 -3.5L5 0L3.5 3.5L0 5L-3.5 3.5L-5 0L-3.5 -3.5Z" stroke="#D62032" fill="none" stroke-width="2"></path></g><g transform="translate(718 217)"><path d="M0 -11L7.8 -7.8L11 0L7.8 7.8L0 11L-7.8 7.8L-11 0L-7.8 -7.8Z" stroke="#D62032" fill="none" stroke-width="2"></path></g><g transform="translate(776 89)"><path d="M0 -4L2.8 -2.8L4 0L2.8 2.8L0 4L-2.8 2.8L-4 0L-2.8 -2.8Z" stroke="#D62032" fill="none" stroke-width="2"></path></g><g transform="translate(507 506)"><path d="M0 -4L2.8 -2.8L4 0L2.8 2.8L0 4L-2.8 2.8L-4 0L-2.8 -2.8Z" stroke="#D62032" fill="none" stroke-width="2"></path></g><g transform="translate(602 371)"><path d="M0 -5L3.5 -3.5L5 0L3.5 3.5L0 5L-3.5 3.5L-5 0L-3.5 -3.5Z" stroke="#D62032" fill="none" stroke-width="2"></path></g><g transform="translate(83 459)"><path d="M0 -11L7.8 -7.8L11 0L7.8 7.8L0 11L-7.8 7.8L-11 0L-7.8 -7.8Z" stroke="#D62032" fill="none" stroke-width="2"></path></g><g transform="translate(459 214)"><path d="M0 -10L7.1 -7.1L10 0L7.1 7.1L0 10L-7.1 7.1L-10 0L-7.1 -7.1Z" stroke="#D62032" fill="none" stroke-width="2"></path></g><g transform="translate(874 468)"><path d="M0 -10L7.1 -7.1L10 0L7.1 7.1L0 10L-7.1 7.1L-10 0L-7.1 -7.1Z" stroke="#D62032" fill="none" stroke-width="2"></path></g><g transform="translate(281 537)"><path d="M0 -9L6.4 -6.4L9 0L6.4 6.4L0 9L-6.4 6.4L-9 0L-6.4 -6.4Z" stroke="#D62032" fill="none" stroke-width="2"></path></g><g transform="translate(91 503)"><path d="M0 -2L1.4 -1.4L2 0L1.4 1.4L0 2L-1.4 1.4L-2 0L-1.4 -1.4Z" stroke="#D62032" fill="none" stroke-width="2"></path></g><g transform="translate(208 372)"><path d="M0 -10L7.1 -7.1L10 0L7.1 7.1L0 10L-7.1 7.1L-10 0L-7.1 -7.1Z" stroke="#D62032" fill="none" stroke-width="2"></path></g></g></svg>