<svg id="visual" viewBox="0 0 900 600" width="900" height="600" xmlns="http://www.w3.org/2000/svg" xmlns:xlink="http://www.w3.org/1999/xlink" version="1.1"><rect width="900" height="600" fill="#fff"></rect><g><g transform="translate(523 82)"><path d="M0 -14.1L13.4 -4.3L8.3 11.4L-8.3 11.4L-13.4 -4.3Z" fill="#D62032"></path></g><g transform="translate(339 425)"><path d="M0 -13L12.4 -4L7.6 10.5L-7.6 10.5L-12.4 -4Z" fill="#D62032"></path></g><g transform="translate(857 454)"><path d="M0 -13L12.4 -4L7.6 10.5L-7.6 10.5L-12.4 -4Z" fill="#D62032"></path></g><g transform="translate(177 427)"><path d="M0 -13L12.4 -4L7.6 10.5L-7.6 10.5L-12.4 -4Z" fill="#D62032"></path></g><g transform="translate(105 322)"><path d="M0 -13L12.4 -4L7.6 10.5L-7.6 10.5L-12.4 -4Z" fill="#D62032"></path></g><g transform="translate(850 248)"><path d="M0 -13L12.4 -4L7.6 10.5L-7.6 10.5L-12.4 -4Z" fill="#D62032"></path></g><g transform="translate(644 180)"><path d="M0 -12L11.4 -3.7L7.1 9.7L-7.1 9.7L-11.4 -3.7Z" fill="#D62032"></path></g><g transform="translate(435 493)"><path d="M0 -12L11.4 -3.7L7.1 9.7L-7.1 9.7L-11.4 -3.7Z" fill="#D62032"></path></g><g transform="translate(83 147)"><path d="M0 -13L12.4 -4L7.6 10.5L-7.6 10.5L-12.4 -4Z" fill="#D62032"></path></g><g transform="translate(15 114)"><path d="M0 -13L12.4 -4L7.6 10.5L-7.6 10.5L-12.4 -4Z" fill="#D62032"></path></g></g></svg>