<svg id="visual" viewBox="0 0 900 600" width="900" height="600" xmlns="http://www.w3.org/2000/svg" xmlns:xlink="http://www.w3.org/1999/xlink" version="1.1"><rect width="900" height="600" fill="#fff"></rect><g><g transform="translate(240 284)"><path d="M0 -13.1L12.5 -4.1L7.7 10.6L-7.7 10.6L-12.5 -4.1Z" fill="#D62032"></path></g><g transform="translate(52 32)"><path d="M0 -12L11.4 -3.7L7.1 9.7L-7.1 9.7L-11.4 -3.7Z" fill="#D62032"></path></g><g transform="translate(815 424)"><path d="M0 -11L10.5 -3.4L6.5 8.9L-6.5 8.9L-10.5 -3.4Z" fill="#D62032"></path></g><g transform="translate(668 331)"><path d="M0 -11L10.5 -3.4L6.5 8.9L-6.5 8.9L-10.5 -3.4Z" fill="#D62032"></path></g><g transform="translate(187 452)"><path d="M0 -12L11.4 -3.7L7.1 9.7L-7.1 9.7L-11.4 -3.7Z" fill="#D62032"></path></g><g transform="translate(771 67)"><path d="M0 -12L11.4 -3.7L7.1 9.7L-7.1 9.7L-11.4 -3.7Z" fill="#D62032"></path></g></g></svg>